<svg viewBox="0 0 100 100" width="140" height="140" xmlns="http://www.w3.org/2000/svg">

<defs>

<linearGradient id="wg" x1="0%" y1="0%" x2="100%" y2="100%">
<stop offset="0%" stop-color="#ffffff"/>
<stop offset="55%" stop-color="#d0d8f0"/>
<stop offset="100%" stop-color="#8896b8"/>
</linearGradient>

<filter id="glow" x="-40%" y="-40%" width="180%" height="180%">
<feGaussianBlur stdDeviation="2.5" result="blur"/>
<feMerge>
<feMergeNode in="blur"/>
<feMergeNode in="SourceGraphic"/>
</feMerge>
</filter>

</defs>

<!-- glow path -->
<path
fill="none"
stroke="rgba(180,200,255,0.25)"
stroke-width="9"
stroke-linecap="round"
stroke-linejoin="round"
filter="url(#glow)"

d="M62 28
C62 18 38 18 38 32
C38 44 62 46 62 56
C62 70 38 70 38 60
C38 60 38 60 38 60">

<animate
attributeName="d"
dur="4.4s"
repeatCount="indefinite"
values="
M62 28 C62 18 38 18 38 32 C38 44 62 46 62 56 C62 70 38 70 38 60 C38 60 38 60 38 60;
M28 72 C28 72 28 28 28 28 C28 28 50 60 50 60 C50 60 72 28 72 28 C72 28 72 72 72 72;
M62 28 C62 18 38 18 38 32 C38 44 62 46 62 56 C62 70 38 70 38 60 C38 60 38 60 38 60"
keyTimes="0;0.5;1"/>
</path>

<!-- main letter -->
<path
fill="none"
stroke="url(#wg)"
stroke-width="6.5"
stroke-linecap="round"
stroke-linejoin="round"

d="M62 28
C62 18 38 18 38 32
C38 44 62 46 62 56
C62 70 38 70 38 60
C38 60 38 60 38 60">

<animate
attributeName="d"
dur="4.4s"
repeatCount="indefinite"
values="
M62 28 C62 18 38 18 38 32 C38 44 62 46 62 56 C62 70 38 70 38 60 C38 60 38 60 38 60;
M28 72 C28 72 28 28 28 28 C28 28 50 60 50 60 C50 60 72 28 72 28 C72 28 72 72 72 72;
M62 28 C62 18 38 18 38 32 C38 44 62 46 62 56 C62 70 38 70 38 60 C38 60 38 60 38 60"
keyTimes="0;0.5;1"/>
</path>

</svg>